<svg xmlns="http://www.w3.org/2000/svg" xmlns:xlink="http://www.w3.org/1999/xlink" width="500" zoomAndPan="magnify" viewBox="0 0 375 374.999991" height="500" preserveAspectRatio="xMidYMid meet" version="1.0"><defs><g/><clipPath id="837e86c3e5"><path d="M 28.125 109.609375 L 126.3125 109.609375 L 126.3125 230.882812 L 28.125 230.882812 Z M 28.125 109.609375 " clip-rule="nonzero"/></clipPath><clipPath id="0fc5bd19b9"><path d="M 138.40625 109.609375 L 236.59375 109.609375 L 236.59375 230.882812 L 138.40625 230.882812 Z M 138.40625 109.609375 " clip-rule="nonzero"/></clipPath><clipPath id="d6ab5cf24a"><path d="M 248.6875 109.609375 L 346.875 109.609375 L 346.875 230.882812 L 248.6875 230.882812 Z M 248.6875 109.609375 " clip-rule="nonzero"/></clipPath></defs><g clip-path="url(#837e86c3e5)"><path fill="#004aad" d="M 28.125 109.609375 L 126.3125 109.609375 L 126.3125 230.808594 L 28.125 230.808594 Z M 28.125 109.609375 " fill-opacity="1" fill-rule="nonzero"/></g><g fill="#ffffff" fill-opacity="1"><g transform="translate(39.714846, 195.108386)"><g><path d="M 44.328125 0 L 37.65625 -31.421875 L 37.34375 -31.421875 L 30.671875 0 L 12.453125 0 L 0.375 -51.59375 L 17.625 -51.59375 L 23.546875 -22.34375 L 23.84375 -22.34375 L 29.703125 -51.59375 L 46.046875 -51.59375 L 52.28125 -22.34375 L 52.578125 -22.34375 L 58.125 -51.59375 L 74.625 -51.59375 L 62.546875 0 Z M 44.328125 0 "/></g></g></g><g clip-path="url(#0fc5bd19b9)"><path fill="#004aad" d="M 138.40625 109.609375 L 236.59375 109.609375 L 236.59375 230.808594 L 138.40625 230.808594 Z M 138.40625 109.609375 " fill-opacity="1" fill-rule="nonzero"/></g><g fill="#ffffff" fill-opacity="1"><g transform="translate(160.414302, 195.108386)"><g><path d="M 5.546875 -51.59375 L 50.171875 -51.59375 L 50.171875 -39.21875 L 22.125 -39.21875 L 22.125 -32.09375 L 46.125 -32.09375 L 46.125 -20.25 L 22.125 -20.25 L 22.125 -12.375 L 50.703125 -12.375 L 50.703125 0 L 5.546875 0 Z M 5.546875 -51.59375 "/></g></g></g><g clip-path="url(#d6ab5cf24a)"><path fill="#004aad" d="M 248.6875 109.609375 L 346.875 109.609375 L 346.875 230.808594 L 248.6875 230.808594 Z M 248.6875 109.609375 " fill-opacity="1" fill-rule="nonzero"/></g><g fill="#ffffff" fill-opacity="1"><g transform="translate(272.758287, 195.108386)"><g><path d="M 5.546875 -51.59375 L 22.125 -51.59375 L 22.125 -13.203125 L 48.59375 -13.203125 L 48.59375 0 L 5.546875 0 Z M 5.546875 -51.59375 "/></g></g></g><g fill="#004aad" fill-opacity="1"><g transform="translate(153.195552, 262.304044)"><g><path d="M 7.34375 -0.328125 L 6.109375 -4 L 2.734375 -4 L 1.421875 -0.328125 L 2.703125 -0.328125 L 2.703125 0 L 0.109375 0 L 0.109375 -0.328125 L 0.90625 -0.328125 L 5.234375 -12 L 6.625 -12 L 10.90625 -0.328125 L 11.703125 -0.328125 L 11.703125 0 L 6.140625 0 L 6.140625 -0.328125 Z M 4.484375 -8.828125 L 2.890625 -4.375 L 5.96875 -4.375 Z M 4.484375 -8.828125 "/></g></g></g><g fill="#004aad" fill-opacity="1"><g transform="translate(164.988104, 262.304044)"><g><path d="M 3.625 -3.515625 C 3.625 -2.328125 3.6875 -1.535156 3.8125 -1.140625 C 3.9375 -0.753906 4.164062 -0.5625 4.5 -0.5625 C 4.832031 -0.5625 5.117188 -0.707031 5.359375 -1 C 5.609375 -1.289062 5.734375 -1.726562 5.734375 -2.3125 L 5.734375 -6.015625 C 5.734375 -6.503906 5.632812 -6.914062 5.4375 -7.25 C 5.25 -7.59375 4.96875 -7.765625 4.59375 -7.765625 C 4.21875 -7.765625 3.960938 -7.515625 3.828125 -7.015625 C 3.691406 -6.515625 3.625 -5.644531 3.625 -4.40625 Z M 5.953125 0 L 5.765625 -1.1875 C 5.378906 -0.28125 4.597656 0.171875 3.421875 0.171875 C 2.441406 0.171875 1.679688 -0.175781 1.140625 -0.875 C 0.609375 -1.582031 0.34375 -2.632812 0.34375 -4.03125 C 0.34375 -6.851562 1.460938 -8.265625 3.703125 -8.265625 C 4.703125 -8.265625 5.359375 -7.984375 5.671875 -7.421875 L 5.671875 -12.4375 L 4.640625 -12.4375 L 4.640625 -12.75 L 8.890625 -12.75 L 8.890625 -0.3125 L 9.71875 -0.3125 L 9.71875 0 Z M 5.953125 0 "/></g></g></g><g fill="#004aad" fill-opacity="1"><g transform="translate(174.979494, 262.304044)"><g><path d="M 0 -7.78125 L 0 -8.09375 L 5.078125 -8.09375 L 5.078125 -7.78125 L 4.015625 -7.78125 L 6.046875 -2.140625 L 7.890625 -7.78125 L 6.75 -7.78125 L 6.75 -8.09375 L 9.046875 -8.09375 L 9.046875 -7.78125 L 8.296875 -7.78125 L 5.78125 0 L 3.84375 0 L 0.703125 -7.78125 Z M 0 -7.78125 "/></g></g></g><g fill="#004aad" fill-opacity="1"><g transform="translate(184.019319, 262.304044)"><g><path d="M 2.65625 -9.265625 C 2.0625 -9.265625 1.632812 -9.414062 1.375 -9.71875 C 1.125 -10.03125 1 -10.410156 1 -10.859375 C 1 -11.316406 1.140625 -11.691406 1.421875 -11.984375 C 1.703125 -12.273438 2.125 -12.421875 2.6875 -12.421875 C 3.25 -12.421875 3.675781 -12.285156 3.96875 -12.015625 C 4.269531 -11.753906 4.421875 -11.378906 4.421875 -10.890625 C 4.421875 -10.398438 4.273438 -10.003906 3.984375 -9.703125 C 3.703125 -9.410156 3.257812 -9.265625 2.65625 -9.265625 Z M 0.109375 -8.09375 L 4.265625 -8.09375 L 4.265625 -0.3125 L 5.21875 -0.3125 L 5.21875 0 L 0.171875 0 L 0.171875 -0.3125 L 1.109375 -0.3125 L 1.109375 -7.78125 L 0.109375 -7.78125 Z M 0.109375 -8.09375 "/></g></g></g><g fill="#004aad" fill-opacity="1"><g transform="translate(189.405835, 262.304044)"><g><path d="M 0.5625 0.171875 L 0.5625 -2.875 L 0.765625 -2.875 C 1.054688 -1.882812 1.453125 -1.191406 1.953125 -0.796875 C 2.453125 -0.398438 3.078125 -0.203125 3.828125 -0.203125 C 4.984375 -0.203125 5.5625 -0.570312 5.5625 -1.3125 C 5.5625 -1.625 5.421875 -1.859375 5.140625 -2.015625 C 4.691406 -2.265625 4.125 -2.457031 3.4375 -2.59375 C 2.664062 -2.800781 2.019531 -3.078125 1.5 -3.421875 C 0.875 -3.828125 0.5625 -4.472656 0.5625 -5.359375 C 0.5625 -6.242188 0.832031 -6.945312 1.375 -7.46875 C 1.914062 -8 2.640625 -8.265625 3.546875 -8.265625 C 4.109375 -8.265625 4.679688 -8.132812 5.265625 -7.875 C 5.484375 -7.78125 5.648438 -7.734375 5.765625 -7.734375 C 5.878906 -7.734375 5.972656 -7.769531 6.046875 -7.84375 C 6.128906 -7.925781 6.226562 -8.078125 6.34375 -8.296875 L 6.53125 -8.296875 L 6.53125 -5.6875 L 6.328125 -5.6875 C 5.742188 -7.164062 4.847656 -7.90625 3.640625 -7.90625 C 3.109375 -7.90625 2.710938 -7.8125 2.453125 -7.625 C 2.191406 -7.4375 2.0625 -7.203125 2.0625 -6.921875 C 2.0625 -6.742188 2.097656 -6.609375 2.171875 -6.515625 C 2.253906 -6.421875 2.316406 -6.347656 2.359375 -6.296875 C 2.410156 -6.253906 2.484375 -6.207031 2.578125 -6.15625 C 2.679688 -6.113281 2.765625 -6.078125 2.828125 -6.046875 C 2.898438 -6.015625 3.003906 -5.972656 3.140625 -5.921875 C 3.285156 -5.878906 3.394531 -5.851562 3.46875 -5.84375 C 4.238281 -5.65625 4.789062 -5.488281 5.125 -5.34375 C 5.46875 -5.207031 5.796875 -5.035156 6.109375 -4.828125 C 6.722656 -4.398438 7.03125 -3.707031 7.03125 -2.75 C 7.03125 -1.789062 6.75 -1.0625 6.1875 -0.5625 C 5.625 -0.0703125 4.847656 0.171875 3.859375 0.171875 C 3.160156 0.171875 2.476562 0.00390625 1.8125 -0.328125 C 1.675781 -0.410156 1.570312 -0.453125 1.5 -0.453125 C 1.25 -0.453125 1.003906 -0.242188 0.765625 0.171875 Z M 0.5625 0.171875 "/></g></g></g><g fill="#004aad" fill-opacity="1"><g transform="translate(196.78043, 262.304044)"><g><path d="M 5.65625 -3.34375 L 5.65625 -4.796875 C 5.65625 -5.890625 5.59375 -6.6875 5.46875 -7.1875 C 5.351562 -7.695312 5.082031 -7.953125 4.65625 -7.953125 C 4.40625 -7.953125 4.203125 -7.878906 4.046875 -7.734375 C 3.898438 -7.597656 3.789062 -7.363281 3.71875 -7.03125 C 3.613281 -6.519531 3.5625 -5.742188 3.5625 -4.703125 L 3.5625 -3.390625 C 3.5625 -2.148438 3.597656 -1.40625 3.671875 -1.15625 C 3.753906 -0.90625 3.832031 -0.703125 3.90625 -0.546875 C 4.03125 -0.273438 4.273438 -0.140625 4.640625 -0.140625 C 5.078125 -0.140625 5.367188 -0.394531 5.515625 -0.90625 C 5.609375 -1.257812 5.65625 -2.070312 5.65625 -3.34375 Z M 4.609375 0.171875 C 3.191406 0.171875 2.117188 -0.1875 1.390625 -0.90625 C 0.671875 -1.632812 0.3125 -2.675781 0.3125 -4.03125 C 0.3125 -5.382812 0.695312 -6.425781 1.46875 -7.15625 C 2.25 -7.894531 3.335938 -8.265625 4.734375 -8.265625 C 6.140625 -8.265625 7.1875 -7.925781 7.875 -7.25 C 8.570312 -6.570312 8.921875 -5.546875 8.921875 -4.171875 C 8.921875 -1.273438 7.484375 0.171875 4.609375 0.171875 Z M 4.609375 0.171875 "/></g></g></g><g fill="#004aad" fill-opacity="1"><g transform="translate(206.007171, 262.304044)"><g><path d="M 5.84375 -7.609375 C 5.425781 -7.609375 5.054688 -7.335938 4.734375 -6.796875 C 4.421875 -6.253906 4.265625 -5.609375 4.265625 -4.859375 L 4.265625 -0.3125 L 5.46875 -0.3125 L 5.46875 0 L 0.171875 0 L 0.171875 -0.3125 L 1.109375 -0.3125 L 1.109375 -7.78125 L 0.171875 -7.78125 L 0.171875 -8.09375 L 4.265625 -8.09375 L 4.265625 -6.453125 C 4.410156 -7.035156 4.691406 -7.484375 5.109375 -7.796875 C 5.535156 -8.109375 6.015625 -8.265625 6.546875 -8.265625 C 7.078125 -8.265625 7.507812 -8.113281 7.84375 -7.8125 C 8.175781 -7.507812 8.34375 -7.082031 8.34375 -6.53125 C 8.34375 -5.988281 8.21875 -5.566406 7.96875 -5.265625 C 7.71875 -4.972656 7.332031 -4.828125 6.8125 -4.828125 C 6.300781 -4.828125 5.925781 -4.992188 5.6875 -5.328125 C 5.445312 -5.671875 5.414062 -6.144531 5.59375 -6.75 L 6.203125 -6.75 C 6.484375 -7.320312 6.363281 -7.609375 5.84375 -7.609375 Z M 5.84375 -7.609375 "/></g></g></g><g fill="#004aad" fill-opacity="1"><g transform="translate(214.418281, 262.304044)"><g><path d="M 0.5625 0.171875 L 0.5625 -2.875 L 0.765625 -2.875 C 1.054688 -1.882812 1.453125 -1.191406 1.953125 -0.796875 C 2.453125 -0.398438 3.078125 -0.203125 3.828125 -0.203125 C 4.984375 -0.203125 5.5625 -0.570312 5.5625 -1.3125 C 5.5625 -1.625 5.421875 -1.859375 5.140625 -2.015625 C 4.691406 -2.265625 4.125 -2.457031 3.4375 -2.59375 C 2.664062 -2.800781 2.019531 -3.078125 1.5 -3.421875 C 0.875 -3.828125 0.5625 -4.472656 0.5625 -5.359375 C 0.5625 -6.242188 0.832031 -6.945312 1.375 -7.46875 C 1.914062 -8 2.640625 -8.265625 3.546875 -8.265625 C 4.109375 -8.265625 4.679688 -8.132812 5.265625 -7.875 C 5.484375 -7.78125 5.648438 -7.734375 5.765625 -7.734375 C 5.878906 -7.734375 5.972656 -7.769531 6.046875 -7.84375 C 6.128906 -7.925781 6.226562 -8.078125 6.34375 -8.296875 L 6.53125 -8.296875 L 6.53125 -5.6875 L 6.328125 -5.6875 C 5.742188 -7.164062 4.847656 -7.90625 3.640625 -7.90625 C 3.109375 -7.90625 2.710938 -7.8125 2.453125 -7.625 C 2.191406 -7.4375 2.0625 -7.203125 2.0625 -6.921875 C 2.0625 -6.742188 2.097656 -6.609375 2.171875 -6.515625 C 2.253906 -6.421875 2.316406 -6.347656 2.359375 -6.296875 C 2.410156 -6.253906 2.484375 -6.207031 2.578125 -6.15625 C 2.679688 -6.113281 2.765625 -6.078125 2.828125 -6.046875 C 2.898438 -6.015625 3.003906 -5.972656 3.140625 -5.921875 C 3.285156 -5.878906 3.394531 -5.851562 3.46875 -5.84375 C 4.238281 -5.65625 4.789062 -5.488281 5.125 -5.34375 C 5.46875 -5.207031 5.796875 -5.035156 6.109375 -4.828125 C 6.722656 -4.398438 7.03125 -3.707031 7.03125 -2.75 C 7.03125 -1.789062 6.75 -1.0625 6.1875 -0.5625 C 5.625 -0.0703125 4.847656 0.171875 3.859375 0.171875 C 3.160156 0.171875 2.476562 0.00390625 1.8125 -0.328125 C 1.675781 -0.410156 1.570312 -0.453125 1.5 -0.453125 C 1.25 -0.453125 1.003906 -0.242188 0.765625 0.171875 Z M 0.5625 0.171875 "/></g></g></g><path stroke-linecap="butt" transform="matrix(0.75, 0, 0, 0.75, 248.687976, 252.929045)" fill="none" stroke-linejoin="miter" d="M -0.000634893 2.000857 L 130.900415 2.000857 " stroke="#004aad" stroke-width="4" stroke-opacity="1" stroke-miterlimit="4"/><path stroke-linecap="butt" transform="matrix(0.75, 0, 0, 0.75, 37.500002, 252.929045)" fill="none" stroke-linejoin="miter" d="M -0.00000271667 2.000857 L 130.901048 2.000857 " stroke="#004aad" stroke-width="4" stroke-opacity="1" stroke-miterlimit="4"/></svg>