<svg xmlns="http://www.w3.org/2000/svg" xmlns:xlink="http://www.w3.org/1999/xlink" width="500" zoomAndPan="magnify" viewBox="0 0 375 374.999991" height="500" preserveAspectRatio="xMidYMid meet" version="1.0"><defs><g/><clipPath id="4f2920739d"><path d="M 28.125 109.609375 L 126.3125 109.609375 L 126.3125 230.882812 L 28.125 230.882812 Z M 28.125 109.609375 " clip-rule="nonzero"/></clipPath><clipPath id="0a76334aea"><path d="M 138.40625 109.609375 L 236.59375 109.609375 L 236.59375 230.882812 L 138.40625 230.882812 Z M 138.40625 109.609375 " clip-rule="nonzero"/></clipPath><clipPath id="2f9d54aab2"><path d="M 248.6875 109.609375 L 346.875 109.609375 L 346.875 230.882812 L 248.6875 230.882812 Z M 248.6875 109.609375 " clip-rule="nonzero"/></clipPath></defs><g clip-path="url(#4f2920739d)"><path fill="#004aad" d="M 28.125 109.609375 L 126.3125 109.609375 L 126.3125 230.808594 L 28.125 230.808594 Z M 28.125 109.609375 " fill-opacity="1" fill-rule="nonzero"/></g><g fill="#ffffff" fill-opacity="1"><g transform="translate(39.714846, 195.108386)"><g><path d="M 44.328125 0 L 37.65625 -31.421875 L 37.34375 -31.421875 L 30.671875 0 L 12.453125 0 L 0.375 -51.59375 L 17.625 -51.59375 L 23.546875 -22.34375 L 23.84375 -22.34375 L 29.703125 -51.59375 L 46.046875 -51.59375 L 52.28125 -22.34375 L 52.578125 -22.34375 L 58.125 -51.59375 L 74.625 -51.59375 L 62.546875 0 Z M 44.328125 0 "/></g></g></g><g clip-path="url(#0a76334aea)"><path fill="#004aad" d="M 138.40625 109.609375 L 236.59375 109.609375 L 236.59375 230.808594 L 138.40625 230.808594 Z M 138.40625 109.609375 " fill-opacity="1" fill-rule="nonzero"/></g><g fill="#ffffff" fill-opacity="1"><g transform="translate(160.414302, 195.108386)"><g><path d="M 5.546875 -51.59375 L 50.171875 -51.59375 L 50.171875 -39.21875 L 22.125 -39.21875 L 22.125 -32.09375 L 46.125 -32.09375 L 46.125 -20.25 L 22.125 -20.25 L 22.125 -12.375 L 50.703125 -12.375 L 50.703125 0 L 5.546875 0 Z M 5.546875 -51.59375 "/></g></g></g><g clip-path="url(#2f9d54aab2)"><path fill="#004aad" d="M 248.6875 109.609375 L 346.875 109.609375 L 346.875 230.808594 L 248.6875 230.808594 Z M 248.6875 109.609375 " fill-opacity="1" fill-rule="nonzero"/></g><g fill="#ffffff" fill-opacity="1"><g transform="translate(272.758287, 195.108386)"><g><path d="M 5.546875 -51.59375 L 22.125 -51.59375 L 22.125 -13.203125 L 48.59375 -13.203125 L 48.59375 0 L 5.546875 0 Z M 5.546875 -51.59375 "/></g></g></g></svg>